<mxfile host="Electron" agent="Mozilla/5.0 (Macintosh; Intel Mac OS X 10_15_7) AppleWebKit/537.36 (KHTML, like Gecko) draw.io/26.2.15 Chrome/134.0.6998.205 Electron/35.2.1 Safari/537.36" version="26.2.15">
  <diagram name="Page-1" id="_z7-9HjsCr0XT1sMIlId">
    <mxGraphModel dx="871" dy="572" grid="1" gridSize="10" guides="1" tooltips="1" connect="1" arrows="1" fold="1" page="1" pageScale="1" pageWidth="827" pageHeight="1169" math="0" shadow="0">
      <root>
        <mxCell id="0" />
        <mxCell id="1" parent="0" />
        <mxCell id="vzwM-5fA1Et7it-LGX3n-25" value="" style="edgeStyle=orthogonalEdgeStyle;rounded=0;orthogonalLoop=1;jettySize=auto;html=1;" parent="1" source="vzwM-5fA1Et7it-LGX3n-1" target="vzwM-5fA1Et7it-LGX3n-24" edge="1">
          <mxGeometry relative="1" as="geometry" />
        </mxCell>
        <mxCell id="vzwM-5fA1Et7it-LGX3n-1" value="User" style="shape=umlActor;verticalLabelPosition=bottom;verticalAlign=top;html=1;outlineConnect=0;fillColor=#dae8fc;strokeColor=#6c8ebf;" parent="1" vertex="1">
          <mxGeometry x="99" y="260" width="60" height="120" as="geometry" />
        </mxCell>
        <mxCell id="vzwM-5fA1Et7it-LGX3n-20" value="" style="edgeStyle=orthogonalEdgeStyle;rounded=0;orthogonalLoop=1;jettySize=auto;html=1;exitX=0.5;exitY=1;exitDx=0;exitDy=0;exitPerimeter=0;" parent="1" source="vzwM-5fA1Et7it-LGX3n-24" target="vzwM-5fA1Et7it-LGX3n-19" edge="1">
          <mxGeometry relative="1" as="geometry">
            <mxPoint x="269" y="380" as="sourcePoint" />
          </mxGeometry>
        </mxCell>
        <mxCell id="vzwM-5fA1Et7it-LGX3n-8" value="&lt;font style=&quot;font-size: 11px;&quot;&gt;Create/Edit Tour&lt;/font&gt;&lt;div&gt;&lt;font style=&quot;font-size: 11px;&quot;&gt;View/Manage Tour List&lt;/font&gt;&lt;/div&gt;&lt;div&gt;&lt;font style=&quot;font-size: 11px;&quot;&gt;Create/Edit Tour Log&lt;/font&gt;&lt;/div&gt;&lt;div&gt;&lt;font style=&quot;font-size: 11px;&quot;&gt;View/Manage Tour Log&lt;/font&gt;&lt;/div&gt;&lt;div&gt;&lt;font style=&quot;font-size: 11px;&quot;&gt;Search Tours&lt;/font&gt;&lt;/div&gt;&lt;div&gt;&lt;font style=&quot;font-size: 11px;&quot;&gt;Generate Reports&lt;/font&gt;&lt;/div&gt;" style="whiteSpace=wrap;html=1;verticalAlign=top;rounded=1;fillColor=#ffe6cc;strokeColor=#d79b00;" parent="1" vertex="1">
          <mxGeometry x="209" y="150" width="120" height="100" as="geometry" />
        </mxCell>
        <mxCell id="vzwM-5fA1Et7it-LGX3n-12" value="&lt;font style=&quot;font-size: 11px;&quot;&gt;Manage Tours&lt;/font&gt;&lt;div&gt;&lt;font style=&quot;font-size: 11px;&quot;&gt;Manage Tour Logs&lt;/font&gt;&lt;/div&gt;&lt;div&gt;&lt;font style=&quot;font-size: 11px;&quot;&gt;Compute Statistics&lt;/font&gt;&lt;/div&gt;&lt;div&gt;&lt;font style=&quot;font-size: 11px;&quot;&gt;Handle Search Queries&lt;/font&gt;&lt;/div&gt;&lt;div&gt;&lt;font style=&quot;font-size: 11px;&quot;&gt;Export / Import Data&lt;/font&gt;&lt;/div&gt;&lt;div&gt;&lt;font style=&quot;font-size: 11px;&quot;&gt;Generate PDF Reports&lt;/font&gt;&lt;/div&gt;" style="whiteSpace=wrap;html=1;verticalAlign=top;rounded=1;fillColor=#ffe6cc;strokeColor=#d79b00;" parent="1" vertex="1">
          <mxGeometry x="529" y="230" width="180" height="100" as="geometry" />
        </mxCell>
        <mxCell id="vzwM-5fA1Et7it-LGX3n-17" value="" style="edgeStyle=orthogonalEdgeStyle;rounded=0;orthogonalLoop=1;jettySize=auto;html=1;" parent="1" target="vzwM-5fA1Et7it-LGX3n-16" edge="1">
          <mxGeometry relative="1" as="geometry">
            <mxPoint x="529" y="460" as="sourcePoint" />
          </mxGeometry>
        </mxCell>
        <mxCell id="vzwM-5fA1Et7it-LGX3n-16" value="&lt;font style=&quot;font-size: 11px;&quot;&gt;Store Tours&lt;/font&gt;&lt;div&gt;&lt;font style=&quot;font-size: 11px;&quot;&gt;Store Tour Logs&lt;/font&gt;&lt;/div&gt;&lt;div&gt;&lt;font style=&quot;font-size: 11px;&quot;&gt;Store Configurations&lt;/font&gt;&lt;/div&gt;" style="whiteSpace=wrap;html=1;verticalAlign=top;rounded=1;fillColor=#ffe6cc;strokeColor=#d79b00;" parent="1" vertex="1">
          <mxGeometry x="609" y="430" width="120" height="60" as="geometry" />
        </mxCell>
        <mxCell id="vzwM-5fA1Et7it-LGX3n-19" value="design and function&lt;div&gt;unique feature&lt;/div&gt;" style="whiteSpace=wrap;html=1;verticalAlign=top;fillColor=#f5f5f5;strokeColor=#666666;rounded=1;fontColor=#333333;" parent="1" vertex="1">
          <mxGeometry x="209" y="450" width="120" height="60" as="geometry" />
        </mxCell>
        <mxCell id="vzwM-5fA1Et7it-LGX3n-22" value="PostgresSQL&lt;div&gt;DB&lt;/div&gt;" style="shape=datastore;whiteSpace=wrap;html=1;fillColor=#dae8fc;strokeColor=#6c8ebf;" parent="1" vertex="1">
          <mxGeometry x="443" y="430" width="90" height="60" as="geometry" />
        </mxCell>
        <mxCell id="vzwM-5fA1Et7it-LGX3n-26" value="" style="edgeStyle=orthogonalEdgeStyle;rounded=0;orthogonalLoop=1;jettySize=auto;html=1;" parent="1" source="vzwM-5fA1Et7it-LGX3n-24" target="vzwM-5fA1Et7it-LGX3n-8" edge="1">
          <mxGeometry relative="1" as="geometry" />
        </mxCell>
        <mxCell id="vzwM-5fA1Et7it-LGX3n-33" value="" style="edgeStyle=orthogonalEdgeStyle;rounded=0;orthogonalLoop=1;jettySize=auto;html=1;" parent="1" source="vzwM-5fA1Et7it-LGX3n-24" target="vzwM-5fA1Et7it-LGX3n-32" edge="1">
          <mxGeometry relative="1" as="geometry" />
        </mxCell>
        <mxCell id="vzwM-5fA1Et7it-LGX3n-24" value="" style="verticalLabelPosition=bottom;html=1;verticalAlign=top;align=center;strokeColor=#6c8ebf;fillColor=#dae8fc;shape=mxgraph.azure.laptop;pointerEvents=1;" parent="1" vertex="1">
          <mxGeometry x="209" y="290" width="120" height="80" as="geometry" />
        </mxCell>
        <mxCell id="vzwM-5fA1Et7it-LGX3n-36" value="" style="edgeStyle=orthogonalEdgeStyle;rounded=0;orthogonalLoop=1;jettySize=auto;html=1;" parent="1" source="vzwM-5fA1Et7it-LGX3n-28" target="vzwM-5fA1Et7it-LGX3n-32" edge="1">
          <mxGeometry relative="1" as="geometry" />
        </mxCell>
        <mxCell id="vzwM-5fA1Et7it-LGX3n-28" value="Spring Boot Backend" style="text;html=1;align=center;verticalAlign=middle;resizable=0;points=[];autosize=1;strokeColor=#6c8ebf;fillColor=#dae8fc;" parent="1" vertex="1">
          <mxGeometry x="373" y="210" width="140" height="30" as="geometry" />
        </mxCell>
        <mxCell id="vzwM-5fA1Et7it-LGX3n-37" value="" style="edgeStyle=orthogonalEdgeStyle;rounded=0;orthogonalLoop=1;jettySize=auto;html=1;" parent="1" source="vzwM-5fA1Et7it-LGX3n-30" target="vzwM-5fA1Et7it-LGX3n-24" edge="1">
          <mxGeometry relative="1" as="geometry" />
        </mxCell>
        <mxCell id="vzwM-5fA1Et7it-LGX3n-30" value="Angular UI" style="text;html=1;align=center;verticalAlign=middle;resizable=0;points=[];autosize=1;strokeColor=#6c8ebf;fillColor=#dae8fc;" parent="1" vertex="1">
          <mxGeometry x="293" y="400" width="80" height="30" as="geometry" />
        </mxCell>
        <mxCell id="vzwM-5fA1Et7it-LGX3n-34" value="" style="edgeStyle=orthogonalEdgeStyle;rounded=0;orthogonalLoop=1;jettySize=auto;html=1;" parent="1" source="vzwM-5fA1Et7it-LGX3n-32" target="vzwM-5fA1Et7it-LGX3n-12" edge="1">
          <mxGeometry relative="1" as="geometry" />
        </mxCell>
        <mxCell id="vzwM-5fA1Et7it-LGX3n-35" value="" style="edgeStyle=orthogonalEdgeStyle;rounded=0;orthogonalLoop=1;jettySize=auto;html=1;" parent="1" source="vzwM-5fA1Et7it-LGX3n-32" target="vzwM-5fA1Et7it-LGX3n-22" edge="1">
          <mxGeometry relative="1" as="geometry" />
        </mxCell>
        <mxCell id="vzwM-5fA1Et7it-LGX3n-32" value="" style="sketch=0;html=1;aspect=fixed;strokeColor=none;shadow=0;fillColor=#3B8DF1;verticalAlign=top;labelPosition=center;verticalLabelPosition=bottom;shape=mxgraph.gcp2.data_access" parent="1" vertex="1">
          <mxGeometry x="400" y="270" width="70.2" height="75.48" as="geometry" />
        </mxCell>
      </root>
    </mxGraphModel>
  </diagram>
</mxfile>
